<svg width="300" height="300" viewBox="0 0 300 300" fill="none" xmlns="http://www.w3.org/2000/svg">
<path d="M275.931 150.466C275.931 81.1655 219.766 25 150.466 25C81.1655 25 25 81.1655 25 150.466C25 209.278 65.5313 258.68 120.177 272.255V188.791H94.3001V150.466H120.177V133.949C120.177 91.2615 139.487 71.4615 181.44 71.4615C189.38 71.4615 203.102 73.0298 208.738 74.5981V109.297C205.798 109.003 200.652 108.807 194.232 108.807C173.647 108.807 165.708 116.6 165.708 136.841V150.466H206.68L199.623 188.791H165.659V275C227.803 267.501 275.931 214.62 275.931 150.466Z" fill="white"/>
</svg>
