<svg width="300" height="300" viewBox="0 0 300 300" fill="none" xmlns="http://www.w3.org/2000/svg">
<g clip-path="url(#clip0_292_2)">
<path d="M150.556 85.3125C114.923 85.3125 86.1813 114.169 86.1813 149.944C86.1813 185.719 114.923 214.575 150.556 214.575C186.189 214.575 214.931 185.719 214.931 149.944C214.931 114.169 186.189 85.3125 150.556 85.3125ZM150.556 191.962C127.529 191.962 108.704 173.119 108.704 149.944C108.704 126.769 127.473 107.925 150.556 107.925C173.639 107.925 192.408 126.769 192.408 149.944C192.408 173.119 173.583 191.962 150.556 191.962ZM232.579 82.6687C232.579 91.05 225.856 97.7438 217.564 97.7438C209.216 97.7438 202.549 90.9937 202.549 82.6687C202.549 74.3437 209.272 67.5937 217.564 67.5937C225.856 67.5937 232.579 74.3437 232.579 82.6687ZM275.216 97.9688C274.263 77.775 269.669 59.8875 254.934 45.15C240.255 30.4125 222.438 25.8 202.325 24.7875C181.595 23.6062 119.461 23.6062 98.7313 24.7875C78.6737 25.7437 60.8572 30.3562 46.1221 45.0937C31.3871 59.8312 26.8489 77.7187 25.8404 97.9125C24.6639 118.725 24.6639 181.106 25.8404 201.919C26.7929 222.112 31.3871 240 46.1221 254.737C60.8572 269.475 78.6177 274.087 98.7313 275.1C119.461 276.281 181.595 276.281 202.325 275.1C222.438 274.144 240.255 269.531 254.934 254.737C269.613 240 274.207 222.112 275.216 201.919C276.392 181.106 276.392 118.781 275.216 97.9688ZM248.435 224.25C244.065 235.275 235.605 243.769 224.567 248.212C208.04 254.794 168.821 253.275 150.556 253.275C132.291 253.275 93.0165 254.737 76.5447 248.212C65.5634 243.825 57.1034 235.331 52.6773 224.25C46.1221 207.656 47.6349 168.281 47.6349 149.944C47.6349 131.606 46.1782 92.175 52.6773 75.6375C57.0474 64.6125 65.5074 56.1187 76.5447 51.675C93.0726 45.0937 132.291 46.6125 150.556 46.6125C168.821 46.6125 208.096 45.15 224.567 51.675C235.549 56.0625 244.009 64.5562 248.435 75.6375C254.99 92.2312 253.477 131.606 253.477 149.944C253.477 168.281 254.99 207.712 248.435 224.25Z" fill="white"/>
</g>
<defs>
<clipPath id="clip0_292_2">
<rect width="251" height="288" fill="white" transform="translate(25 6)"/>
</clipPath>
</defs>
</svg>
