<svg width="300" height="300" viewBox="0 0 300 300" fill="none" xmlns="http://www.w3.org/2000/svg">
<path d="M150 25C80.9476 25 25 80.9476 25 150C25 219.052 80.9476 275 150 275C219.052 275 275 219.052 275 150C275 80.9476 219.052 25 150 25ZM207.964 110.03C206.099 129.788 197.933 177.772 193.8 199.899C192.036 209.274 188.609 212.399 185.282 212.702C178.024 213.357 172.53 207.913 165.474 203.276C154.486 196.069 148.236 191.583 137.601 184.526C125.252 176.411 133.266 171.925 140.272 164.617C142.137 162.702 174.093 133.619 174.698 130.998C174.798 130.645 174.849 129.435 174.093 128.78C173.337 128.125 172.278 128.377 171.522 128.528C170.413 128.763 152.839 140.373 118.8 163.357C113.827 166.784 109.308 168.448 105.242 168.347C100.756 168.246 92.1875 165.827 85.7863 163.76C77.9738 161.24 71.7238 159.879 72.2782 155.544C72.547 153.293 75.6552 150.991 81.6028 148.639C118.028 132.779 142.322 122.312 154.486 117.238C189.214 102.823 196.421 100.302 201.109 100.202C202.167 100.202 204.435 100.454 205.948 101.663C206.934 102.531 207.563 103.735 207.712 105.04C207.984 106.689 208.069 108.363 207.964 110.03Z" fill="white"/>
</svg>
