<svg width="300" height="300" viewBox="0 0 300 300" fill="none" xmlns="http://www.w3.org/2000/svg">
<path d="M259.772 127.5C238.265 127.546 217.288 120.833 199.805 108.309V195.622C199.8 211.793 194.857 227.577 185.639 240.863C176.42 254.149 163.365 264.303 148.219 269.968C133.073 275.633 116.558 276.539 100.884 272.564C85.2089 268.588 71.1216 259.922 60.5058 247.724C49.8899 235.525 43.2517 220.376 41.4787 204.303C39.7058 188.23 42.8828 171.998 50.5847 157.779C58.2867 143.561 70.1464 132.032 84.5779 124.736C99.0093 117.44 115.324 114.725 131.341 116.952V160.853C124.017 158.548 116.152 158.615 108.869 161.046C101.586 163.477 95.2576 168.146 90.7866 174.388C86.3157 180.63 83.9312 188.125 83.9736 195.803C84.016 203.481 86.4833 210.949 91.023 217.141C95.5627 223.333 101.943 227.932 109.252 230.283C116.562 232.633 124.427 232.613 131.724 230.227C139.022 227.841 145.379 223.21 149.888 216.995C154.397 210.78 156.827 203.3 156.832 195.622V25H199.805C199.78 28.6345 200.091 32.2634 200.733 35.8409C202.227 43.8153 205.332 51.4013 209.857 58.1351C214.383 64.8689 220.234 70.6091 227.053 75.0049C236.76 81.4159 248.139 84.8294 259.772 84.8203V127.5Z" fill="white"/>
</svg>
