<svg width="300" height="300" viewBox="0 0 300 300" fill="none" xmlns="http://www.w3.org/2000/svg">
<path d="M238.556 61.3281C215.174 37.8906 184.036 25 150.944 25C82.6406 25 27.0603 80.5804 27.0603 148.884C27.0603 170.703 32.7522 192.02 43.5781 210.826L26 275L91.6808 257.757C109.761 267.634 130.129 272.824 150.888 272.824H150.944C219.192 272.824 276 217.243 276 148.94C276 115.848 261.938 84.7656 238.556 61.3281ZM150.944 251.953C132.417 251.953 114.281 246.987 98.4888 237.612L94.75 235.379L55.7991 245.592L66.1786 207.589L63.7232 203.683C53.3996 187.277 47.9866 168.359 47.9866 148.884C47.9866 92.1317 94.192 45.9263 151 45.9263C178.511 45.9263 204.348 56.6406 223.768 76.1161C243.188 95.5915 255.129 121.429 255.074 148.94C255.074 205.748 207.696 251.953 150.944 251.953ZM207.417 174.833C204.348 173.27 189.114 165.792 186.268 164.788C183.422 163.728 181.357 163.225 179.292 166.35C177.228 169.475 171.313 176.395 169.471 178.516C167.685 180.58 165.844 180.859 162.775 179.297C144.583 170.201 132.641 163.058 120.643 142.467C117.462 136.998 123.824 137.388 129.739 125.558C130.743 123.493 130.241 121.708 129.46 120.145C128.679 118.583 122.484 103.348 119.917 97.154C117.406 91.1272 114.839 91.9643 112.942 91.8527C111.156 91.7411 109.092 91.7411 107.027 91.7411C104.962 91.7411 101.614 92.5223 98.7679 95.5915C95.9219 98.7165 87.942 106.194 87.942 121.429C87.942 136.663 99.0469 151.395 100.554 153.46C102.116 155.525 122.373 186.775 153.455 200.223C173.098 208.705 180.799 209.431 190.621 207.98C196.592 207.087 208.924 200.502 211.491 193.248C214.058 185.993 214.058 179.799 213.277 178.516C212.551 177.121 210.487 176.339 207.417 174.833Z" fill="white"/>
</svg>
