<svg width="300" height="300" viewBox="0 0 300 300" fill="none" xmlns="http://www.w3.org/2000/svg">
<path d="M270.761 88.7023C267.866 77.7781 259.365 69.2047 248.566 66.3008C228.989 61 150.5 61 150.5 61C150.5 61 72.0108 61 52.4345 66.3008C41.6353 69.2047 33.1338 77.7781 30.2387 88.7023C25 108.477 25 149.684 25 149.684C25 149.684 25 190.892 30.2387 210.666C33.1338 221.591 41.6353 229.795 52.4345 232.699C72.0108 238 150.5 238 150.5 238C150.5 238 228.989 238 248.566 232.699C259.365 229.795 267.866 221.545 270.761 210.666C276 190.892 276 149.684 276 149.684C276 149.684 276 108.477 270.761 88.7023ZM124.858 187.113V112.256L190.434 149.684L124.858 187.113Z" fill="white"/>
</svg>
